# xmcd
#
# Track frame offsets:
#	150
#	11202
#	23474
#	37666
#	47410
#	60105
#	71847
#	84776
#	94921
#	103880
#
# Disc length: 1923 seconds
#
# Revision: 1
# Processed by: cddbd v1.5.2PL0 Copyright (c) Steve Scherf et al.
# Submitted via: EasyCDDAExtractor 15.2.5.1
#
DISCID=6a07810a
DTITLE=Dave Lindholm - Ken el‰‰, ken n‰kee. Ken B.
DYEAR=2013
DGENRE=Blues
TTITLE0=Paluu laaksoon
TTITLE1=Preeria
TTITLE2=Hoida puut
TTITLE3=Maamies
TTITLE4=Harvinainen and kallis vaate
TTITLE5=Rakkaus ei ole sopivaa
TTITLE6=Machentaa
TTITLE7=Helpoin tie
TTITLE8=Auringon laskun j‰lkeen
TTITLE9=Nukuttaa
EXTD=
EXTT0=
EXTT1=
EXTT2=
EXTT3=
EXTT4=
EXTT5=
EXTT6=
EXTT7=
EXTT8=
EXTT9=
PLAYORDER=
